# xmcd
#
# Track frame offsets:
# 150
# 18598
# 34552
# 49821
# 64500
# 82674
# 98630
# 116543
# 132382
# 149492
# 167353
# 182553
#
# Disc length: 2682 seconds
#
# Revision: 1
# Processed by: cddbd v1.5.1PL0 Copyright (c) Steve Scherf et al.
# Submitted via: CedeCatalogueitor 2.6.0.6 http://personales.ya.com/cdcatalogueitor
#
DISCID=910a780c
DTITLE=Rosario - De Mil Colores
DYEAR=2003
DGENRE=
TTITLE0=De Mil Colores
TTITLE1=Aguanta Ahi
TTITLE2=Jura De Samba
TTITLE3=La Vida Es Sueño
TTITLE4=Como Tu
TTITLE5=Vueltas
TTITLE6=Atado A Esa Mujer
TTITLE7=En Mi Casa
TTITLE8=Todo Vive En Mi
TTITLE9=Eso Es Amor
TTITLE10=Los Tangos De Mi Abuela
TTITLE11=Viviras
EXTD=
EXTT0=
EXTT1=
EXTT2=
EXTT3=
EXTT4=
EXTT5=
EXTT6=
EXTT7=
EXTT8=
EXTT9=
EXTT10=
EXTT11=
PLAYORDER=
